<?xml version="1.0" standalone="no"?>
<!DOCTYPE svg PUBLIC "-//W3C//DTD SVG 20010904//EN"
 "http://www.w3.org/TR/2001/REC-SVG-20010904/DTD/svg10.dtd">
<svg version="1.0" xmlns="http://www.w3.org/2000/svg"
 width="677.000000pt" height="415.000000pt" viewBox="0 0 677.000000 415.000000"
 preserveAspectRatio="xMidYMid meet">

<g transform="translate(0.000000,415.000000) scale(0.100000,-0.100000)"
fill="#000000" stroke="none">
<path d="M2930 3664 c-188 -17 -407 -67 -576 -129 -388 -146 -715 -429 -874
-758 -195 -407 -149 -888 119 -1243 36 -48 70 -93 76 -100 13 -18 -18 -166
-55 -264 -40 -103 -116 -232 -194 -330 -77 -96 -85 -135 -40 -189 35 -42 76
-47 221 -27 235 32 452 117 700 273 l88 55 100 -30 c212 -64 357 -85 600 -85
215 -1 353 16 548 64 413 104 769 341 984 655 98 144 146 248 191 418 24 91
27 118 27 276 0 148 -4 189 -23 265 -42 169 -106 312 -198 440 -259 364 -662
600 -1169 686 -117 19 -418 33 -525 23z m380 -335 c381 -41 699 -185 922 -417
177 -185 264 -358 288 -574 44 -383 -211 -786 -630 -998 -253 -127 -556 -189
-875 -177 -174 7 -287 26 -451 78 -175 56 -261 45 -401 -48 -32 -22 -98 -62
-147 -88 -71 -38 -88 -44 -82 -29 19 49 55 186 66 253 24 143 2 213 -113 366
-159 211 -223 415 -198 637 26 230 123 419 313 605 221 216 527 350 898 392
167 19 232 19 410 0z"/>
<path d="M2165 2640 c-112 -36 -175 -117 -175 -222 0 -43 22 -102 48 -131 25
-28 103 -65 217 -104 125 -43 165 -67 165 -99 0 -13 -9 -33 -20 -44 -17 -17
-31 -23 -92 -34 -18 -4 -92 11 -197 39 -62 16 -65 16 -90 -3 -95 -71 -11 -152
194 -189 99 -17 162 -10 237 28 119 60 161 184 100 300 -23 45 -37 58 -97 91
-39 21 -106 50 -150 64 -121 41 -155 60 -155 89 0 53 94 83 200 65 139 -24
134 -24 168 5 24 20 32 35 32 59 0 65 -63 93 -234 101 -73 4 -103 1 -151 -15z"/>
<path d="M2726 2639 l-26 -20 0 -364 c0 -333 1 -365 18 -385 25 -31 85 -32
115 -2 21 22 22 30 25 243 l3 220 97 -128 c103 -135 130 -156 176 -135 14 6
68 68 120 137 l95 127 3 -221 c3 -213 4 -221 25 -243 30 -30 90 -29 115 2 17
20 18 52 18 385 l0 364 -26 20 c-32 25 -72 27 -100 3 -12 -9 -77 -91 -144
-182 -68 -91 -126 -168 -129 -173 -4 -4 -63 68 -132 160 -68 93 -135 178 -148
190 -30 29 -70 29 -105 2z"/>
<path d="M3800 2637 c-158 -53 -218 -211 -128 -340 24 -33 104 -75 213 -110
155 -50 179 -65 173 -113 -7 -64 -116 -84 -241 -44 -97 30 -144 30 -169 0 -30
-37 -21 -89 19 -116 51 -34 187 -67 278 -67 70 0 88 3 141 31 34 17 72 44 84
59 70 89 66 218 -8 296 -36 38 -57 48 -196 96 -65 23 -131 49 -147 58 -89 53
36 131 166 103 113 -24 119 -24 153 5 39 32 42 72 10 110 -18 20 -41 29 -101
40 -106 20 -170 18 -247 -8z"/>
</g>
</svg>
